<svg class="center" width="61" height="50" xmlns="http://www.w3.org/2000/svg" xmlns:sketch="http://www.bohemiancoding.com/sketch/ns"><title>Board Report</title><desc>Created with Sketch.</desc><path d="M56.378 3.822c-.239-.383-.378-.837-.378-1.322 0-1.381 1.119-2.5 2.5-2.5s2.5 1.119 2.5 2.5-1.119 2.5-2.5 2.5c-.145 0-.287-.012-.426-.036l-11.685 11.284-1.389-1.439 11.378-10.987zm-23.382 5.528c-.077-1.311-1.165-2.35-2.496-2.35-1.381 0-2.5 1.119-2.5 2.5l.015.278-8.169 6.615c-.389-.249-.851-.393-1.347-.393-1.381 0-2.5 1.119-2.5 2.5s1.119 2.5 2.5 2.5 2.5-1.119 2.5-2.5c0-.149-.013-.295-.038-.436l8.073-6.537c.412.298.918.474 1.465.474.679 0 1.295-.271 1.746-.71l8.788 6.622c.196 1.185 1.226 2.088 2.466 2.088 1.381 0 2.5-1.119 2.5-2.5s-1.119-2.5-2.5-2.5c-.749 0-1.42.329-1.879.85l-8.626-6.5zm-28.002 17.965l.007.185c0 1.381-1.119 2.5-2.5 2.5s-2.5-1.119-2.5-2.5 1.119-2.5 2.5-2.5c.59 0 1.132.204 1.559.546l11.809-6.546.97 1.749-11.845 6.566zm51.083 6.798c-.05-.196-.076-.402-.076-.613 0-1.381 1.119-2.5 2.5-2.5s2.5 1.119 2.5 2.5-1.119 2.5-2.5 2.5c-.43 0-.835-.109-1.188-.3l-10.922 10.548-1.389-1.439 11.076-10.696zm-23.054 3.37c-.422.324-.949.517-1.522.517-.439 0-.852-.113-1.211-.312l-8.297 8.012c-.102 1.287-1.179 2.3-2.492 2.3-1.269 0-2.317-.946-2.478-2.17l-12.165-1.494c-.344.97-1.269 1.664-2.357 1.664-1.381 0-2.5-1.119-2.5-2.5s1.119-2.5 2.5-2.5c.946 0 1.77.526 2.194 1.301l12.898 1.584c.459-.541 1.143-.885 1.908-.885.661 0 1.262.257 1.709.676l7.86-7.59c-.045-.188-.069-.384-.069-.586 0-1.381 1.119-2.5 2.5-2.5s2.5 1.119 2.5 2.5l-.003.114 9.096 9.419c.132-.022.268-.033.407-.033 1.381 0 2.5 1.119 2.5 2.5s-1.119 2.5-2.5 2.5-2.5-1.119-2.5-2.5c0-.496.145-.959.394-1.348l-8.372-8.669z" sketch:type="MSShapeGroup" fill="#727773"/></svg>